<svg xmlns="http://www.w3.org/2000/svg" viewBox="0 0 100 140" role="img" aria-label="10 of Clubs"><rect x="2" y="2" width="96" height="136" rx="10" fill="#fbf6ee" stroke="#ded4c5" stroke-width="1.4"/><g font-family="Haskoy,-apple-system,BlinkMacSystemFont,'Segoe UI',Arial,sans-serif"><text x="16" y="23" fill="#151515" font-size="15" font-weight="600" text-anchor="middle">10</text><g fill="#151515" transform="translate(15 38) scale(0.18)"><circle cx="0" cy="-10" r="10"/><circle cx="-10" cy="4" r="10"/><circle cx="10" cy="4" r="10"/><path d="M-4 8c-1 9-6 14-12 18h32c-6-4-11-9-12-18Z"/></g></g><g><g fill="#151515" transform="translate(36 34) scale(0.23)"><circle cx="0" cy="-10" r="10"/><circle cx="-10" cy="4" r="10"/><circle cx="10" cy="4" r="10"/><path d="M-4 8c-1 9-6 14-12 18h32c-6-4-11-9-12-18Z"/></g><g fill="#151515" transform="translate(64 34) scale(0.23)"><circle cx="0" cy="-10" r="10"/><circle cx="-10" cy="4" r="10"/><circle cx="10" cy="4" r="10"/><path d="M-4 8c-1 9-6 14-12 18h32c-6-4-11-9-12-18Z"/></g><g fill="#151515" transform="translate(36 52) scale(0.23)"><circle cx="0" cy="-10" r="10"/><circle cx="-10" cy="4" r="10"/><circle cx="10" cy="4" r="10"/><path d="M-4 8c-1 9-6 14-12 18h32c-6-4-11-9-12-18Z"/></g><g fill="#151515" transform="translate(64 52) scale(0.23)"><circle cx="0" cy="-10" r="10"/><circle cx="-10" cy="4" r="10"/><circle cx="10" cy="4" r="10"/><path d="M-4 8c-1 9-6 14-12 18h32c-6-4-11-9-12-18Z"/></g><g fill="#151515" transform="translate(50 63) scale(0.23)"><circle cx="0" cy="-10" r="10"/><circle cx="-10" cy="4" r="10"/><circle cx="10" cy="4" r="10"/><path d="M-4 8c-1 9-6 14-12 18h32c-6-4-11-9-12-18Z"/></g><g fill="#151515" transform="translate(50 82) scale(0.23)"><circle cx="0" cy="-10" r="10"/><circle cx="-10" cy="4" r="10"/><circle cx="10" cy="4" r="10"/><path d="M-4 8c-1 9-6 14-12 18h32c-6-4-11-9-12-18Z"/></g><g fill="#151515" transform="translate(36 93) scale(0.23)"><circle cx="0" cy="-10" r="10"/><circle cx="-10" cy="4" r="10"/><circle cx="10" cy="4" r="10"/><path d="M-4 8c-1 9-6 14-12 18h32c-6-4-11-9-12-18Z"/></g><g fill="#151515" transform="translate(64 93) scale(0.23)"><circle cx="0" cy="-10" r="10"/><circle cx="-10" cy="4" r="10"/><circle cx="10" cy="4" r="10"/><path d="M-4 8c-1 9-6 14-12 18h32c-6-4-11-9-12-18Z"/></g><g fill="#151515" transform="translate(36 111) scale(0.23)"><circle cx="0" cy="-10" r="10"/><circle cx="-10" cy="4" r="10"/><circle cx="10" cy="4" r="10"/><path d="M-4 8c-1 9-6 14-12 18h32c-6-4-11-9-12-18Z"/></g><g fill="#151515" transform="translate(64 111) scale(0.23)"><circle cx="0" cy="-10" r="10"/><circle cx="-10" cy="4" r="10"/><circle cx="10" cy="4" r="10"/><path d="M-4 8c-1 9-6 14-12 18h32c-6-4-11-9-12-18Z"/></g></g></svg>
