<svg xmlns="http://www.w3.org/2000/svg" viewBox="0 0 100 140" role="img" aria-label="7 of Diamonds"><rect x="2" y="2" width="96" height="136" rx="10" fill="#fbf6ee" stroke="#ded4c5" stroke-width="1.4"/><g font-family="Haskoy,-apple-system,BlinkMacSystemFont,'Segoe UI',Arial,sans-serif"><text x="15" y="23" fill="#e85d63" font-size="17" font-weight="600" text-anchor="middle">7</text><path fill="#e85d63" d="M0-23 16 0 0 23-16 0Z" transform="translate(15 38) scale(0.18)"/></g><g><path fill="#e85d63" d="M0-23 16 0 0 23-16 0Z" transform="translate(36 38) scale(0.26)"/><path fill="#e85d63" d="M0-23 16 0 0 23-16 0Z" transform="translate(64 38) scale(0.26)"/><path fill="#e85d63" d="M0-23 16 0 0 23-16 0Z" transform="translate(50 56) scale(0.26)"/><path fill="#e85d63" d="M0-23 16 0 0 23-16 0Z" transform="translate(36 76) scale(0.26)"/><path fill="#e85d63" d="M0-23 16 0 0 23-16 0Z" transform="translate(64 76) scale(0.26)"/><path fill="#e85d63" d="M0-23 16 0 0 23-16 0Z" transform="translate(36 103) scale(0.26)"/><path fill="#e85d63" d="M0-23 16 0 0 23-16 0Z" transform="translate(64 103) scale(0.26)"/></g></svg>
