<svg xmlns="http://www.w3.org/2000/svg" viewBox="0 0 100 140" role="img" aria-label="King of Hearts"><rect x="2" y="2" width="96" height="136" rx="10" fill="#fbf6ee" stroke="#ded4c5" stroke-width="1.4"/><g font-family="Haskoy,-apple-system,BlinkMacSystemFont,'Segoe UI',Arial,sans-serif"><text x="15" y="23" fill="#e85d63" font-size="17" font-weight="600" text-anchor="middle">K</text><path fill="#e85d63" d="M0-7C-7-18-23-12-23 3c0 14 15 23 23 31C8 26 23 17 23 3 23-12 7-18 0-7Z" transform="translate(15 38) scale(0.18) translate(0 -7)"/></g><g><text x="50" y="65" fill="#e85d63" font-size="35" font-weight="500" text-anchor="middle" dominant-baseline="middle">K</text><path fill="#e85d63" d="M0-7C-7-18-23-12-23 3c0 14 15 23 23 31C8 26 23 17 23 3 23-12 7-18 0-7Z" transform="translate(50 97) scale(0.4) translate(0 -7)"/></g></svg>
