<svg xmlns="http://www.w3.org/2000/svg" viewBox="0 0 100 140" role="img" aria-label="10 of Clubs">
  <rect x="2" y="2" width="96" height="136" rx="9" fill="#f7f0e6" stroke="#ded5c8" stroke-width="1.5"/>
  <text font-family="Haskoy, -apple-system, Segoe UI, Arial, sans-serif" font-weight="500" x="17" y="23" fill="#111111" font-size="16" text-anchor="middle">10</text>
  <g fill="#111111" transform="translate(15 37) scale(0.19)"><circle cx="-10" cy="-3" r="10"/><circle cx="10" cy="-3" r="10"/><circle cx="0" cy="-14" r="10"/><path d="M-4,4 C-5,12 -10,18 -15,22 H15 C10,18 5,12 4,4Z"/></g>
  <g><g fill="#111111" transform="translate(36 36) scale(0.24)"><circle cx="-10" cy="-3" r="10"/><circle cx="10" cy="-3" r="10"/><circle cx="0" cy="-14" r="10"/><path d="M-4,4 C-5,12 -10,18 -15,22 H15 C10,18 5,12 4,4Z"/></g><g fill="#111111" transform="translate(64 36) scale(0.24)"><circle cx="-10" cy="-3" r="10"/><circle cx="10" cy="-3" r="10"/><circle cx="0" cy="-14" r="10"/><path d="M-4,4 C-5,12 -10,18 -15,22 H15 C10,18 5,12 4,4Z"/></g><g fill="#111111" transform="translate(50 50) scale(0.24)"><circle cx="-10" cy="-3" r="10"/><circle cx="10" cy="-3" r="10"/><circle cx="0" cy="-14" r="10"/><path d="M-4,4 C-5,12 -10,18 -15,22 H15 C10,18 5,12 4,4Z"/></g><g fill="#111111" transform="translate(36 62) scale(0.24)"><circle cx="-10" cy="-3" r="10"/><circle cx="10" cy="-3" r="10"/><circle cx="0" cy="-14" r="10"/><path d="M-4,4 C-5,12 -10,18 -15,22 H15 C10,18 5,12 4,4Z"/></g><g fill="#111111" transform="translate(64 62) scale(0.24)"><circle cx="-10" cy="-3" r="10"/><circle cx="10" cy="-3" r="10"/><circle cx="0" cy="-14" r="10"/><path d="M-4,4 C-5,12 -10,18 -15,22 H15 C10,18 5,12 4,4Z"/></g><g fill="#111111" transform="translate(36 82) scale(0.24)"><circle cx="-10" cy="-3" r="10"/><circle cx="10" cy="-3" r="10"/><circle cx="0" cy="-14" r="10"/><path d="M-4,4 C-5,12 -10,18 -15,22 H15 C10,18 5,12 4,4Z"/></g><g fill="#111111" transform="translate(64 82) scale(0.24)"><circle cx="-10" cy="-3" r="10"/><circle cx="10" cy="-3" r="10"/><circle cx="0" cy="-14" r="10"/><path d="M-4,4 C-5,12 -10,18 -15,22 H15 C10,18 5,12 4,4Z"/></g><g fill="#111111" transform="translate(50 94) scale(0.24)"><circle cx="-10" cy="-3" r="10"/><circle cx="10" cy="-3" r="10"/><circle cx="0" cy="-14" r="10"/><path d="M-4,4 C-5,12 -10,18 -15,22 H15 C10,18 5,12 4,4Z"/></g><g fill="#111111" transform="translate(36 108) scale(0.24)"><circle cx="-10" cy="-3" r="10"/><circle cx="10" cy="-3" r="10"/><circle cx="0" cy="-14" r="10"/><path d="M-4,4 C-5,12 -10,18 -15,22 H15 C10,18 5,12 4,4Z"/></g><g fill="#111111" transform="translate(64 108) scale(0.24)"><circle cx="-10" cy="-3" r="10"/><circle cx="10" cy="-3" r="10"/><circle cx="0" cy="-14" r="10"/><path d="M-4,4 C-5,12 -10,18 -15,22 H15 C10,18 5,12 4,4Z"/></g></g>
</svg>
