<svg xmlns="http://www.w3.org/2000/svg" viewBox="0 0 100 140" role="img" aria-label="10 of Diamonds">
  <rect x="2" y="2" width="96" height="136" rx="9" fill="#f7f0e6" stroke="#ded5c8" stroke-width="1.5"/>
  <text font-family="Haskoy, -apple-system, Segoe UI, Arial, sans-serif" font-weight="500" x="17" y="23" fill="#e85d63" font-size="16" text-anchor="middle">10</text>
  <polygon points="0,-22 15,0 0,22 -15,0" fill="#e85d63" transform="translate(15 37) scale(0.19)"/>
  <g><polygon points="0,-22 15,0 0,22 -15,0" fill="#e85d63" transform="translate(36 36) scale(0.24)"/><polygon points="0,-22 15,0 0,22 -15,0" fill="#e85d63" transform="translate(64 36) scale(0.24)"/><polygon points="0,-22 15,0 0,22 -15,0" fill="#e85d63" transform="translate(50 50) scale(0.24)"/><polygon points="0,-22 15,0 0,22 -15,0" fill="#e85d63" transform="translate(36 62) scale(0.24)"/><polygon points="0,-22 15,0 0,22 -15,0" fill="#e85d63" transform="translate(64 62) scale(0.24)"/><polygon points="0,-22 15,0 0,22 -15,0" fill="#e85d63" transform="translate(36 82) scale(0.24)"/><polygon points="0,-22 15,0 0,22 -15,0" fill="#e85d63" transform="translate(64 82) scale(0.24)"/><polygon points="0,-22 15,0 0,22 -15,0" fill="#e85d63" transform="translate(50 94) scale(0.24)"/><polygon points="0,-22 15,0 0,22 -15,0" fill="#e85d63" transform="translate(36 108) scale(0.24)"/><polygon points="0,-22 15,0 0,22 -15,0" fill="#e85d63" transform="translate(64 108) scale(0.24)"/></g>
</svg>
