<svg xmlns="http://www.w3.org/2000/svg" viewBox="0 0 100 140" role="img" aria-label="10 of Diamonds"><rect x="2" y="2" width="96" height="136" rx="10" fill="#fbf6ee" stroke="#ded4c5" stroke-width="1.4"/><g font-family="Haskoy,-apple-system,BlinkMacSystemFont,'Segoe UI',Arial,sans-serif"><text x="16" y="23" fill="#e85d63" font-size="15" font-weight="600" text-anchor="middle">10</text><path fill="#e85d63" d="M0-23 16 0 0 23-16 0Z" transform="translate(15 38) scale(0.18)"/></g><g><path fill="#e85d63" d="M0-23 16 0 0 23-16 0Z" transform="translate(36 34) scale(0.23)"/><path fill="#e85d63" d="M0-23 16 0 0 23-16 0Z" transform="translate(64 34) scale(0.23)"/><path fill="#e85d63" d="M0-23 16 0 0 23-16 0Z" transform="translate(36 52) scale(0.23)"/><path fill="#e85d63" d="M0-23 16 0 0 23-16 0Z" transform="translate(64 52) scale(0.23)"/><path fill="#e85d63" d="M0-23 16 0 0 23-16 0Z" transform="translate(50 63) scale(0.23)"/><path fill="#e85d63" d="M0-23 16 0 0 23-16 0Z" transform="translate(50 82) scale(0.23)"/><path fill="#e85d63" d="M0-23 16 0 0 23-16 0Z" transform="translate(36 93) scale(0.23)"/><path fill="#e85d63" d="M0-23 16 0 0 23-16 0Z" transform="translate(64 93) scale(0.23)"/><path fill="#e85d63" d="M0-23 16 0 0 23-16 0Z" transform="translate(36 111) scale(0.23)"/><path fill="#e85d63" d="M0-23 16 0 0 23-16 0Z" transform="translate(64 111) scale(0.23)"/></g></svg>
