<svg xmlns="http://www.w3.org/2000/svg" viewBox="0 0 100 140" role="img" aria-label="10 of Spades"><rect x="2" y="2" width="96" height="136" rx="10" fill="#fbf6ee" stroke="#ded4c5" stroke-width="1.4"/><g font-family="Haskoy,-apple-system,BlinkMacSystemFont,'Segoe UI',Arial,sans-serif"><text x="16" y="23" fill="#151515" font-size="15" font-weight="600" text-anchor="middle">10</text><g fill="#151515" transform="translate(15 38) scale(0.18)"><path d="M0-28C-9-20-23-11-23 2c0 13 16 18 23 6 7 12 23 7 23-6C23-11 9-20 0-28Z"/><path d="M-4 5c-1 8-6 13-11 17h30C10 18 5 13 4 5Z"/></g></g><g><g fill="#151515" transform="translate(36 34) scale(0.23)"><path d="M0-28C-9-20-23-11-23 2c0 13 16 18 23 6 7 12 23 7 23-6C23-11 9-20 0-28Z"/><path d="M-4 5c-1 8-6 13-11 17h30C10 18 5 13 4 5Z"/></g><g fill="#151515" transform="translate(64 34) scale(0.23)"><path d="M0-28C-9-20-23-11-23 2c0 13 16 18 23 6 7 12 23 7 23-6C23-11 9-20 0-28Z"/><path d="M-4 5c-1 8-6 13-11 17h30C10 18 5 13 4 5Z"/></g><g fill="#151515" transform="translate(36 52) scale(0.23)"><path d="M0-28C-9-20-23-11-23 2c0 13 16 18 23 6 7 12 23 7 23-6C23-11 9-20 0-28Z"/><path d="M-4 5c-1 8-6 13-11 17h30C10 18 5 13 4 5Z"/></g><g fill="#151515" transform="translate(64 52) scale(0.23)"><path d="M0-28C-9-20-23-11-23 2c0 13 16 18 23 6 7 12 23 7 23-6C23-11 9-20 0-28Z"/><path d="M-4 5c-1 8-6 13-11 17h30C10 18 5 13 4 5Z"/></g><g fill="#151515" transform="translate(50 63) scale(0.23)"><path d="M0-28C-9-20-23-11-23 2c0 13 16 18 23 6 7 12 23 7 23-6C23-11 9-20 0-28Z"/><path d="M-4 5c-1 8-6 13-11 17h30C10 18 5 13 4 5Z"/></g><g fill="#151515" transform="translate(50 82) scale(0.23)"><path d="M0-28C-9-20-23-11-23 2c0 13 16 18 23 6 7 12 23 7 23-6C23-11 9-20 0-28Z"/><path d="M-4 5c-1 8-6 13-11 17h30C10 18 5 13 4 5Z"/></g><g fill="#151515" transform="translate(36 93) scale(0.23)"><path d="M0-28C-9-20-23-11-23 2c0 13 16 18 23 6 7 12 23 7 23-6C23-11 9-20 0-28Z"/><path d="M-4 5c-1 8-6 13-11 17h30C10 18 5 13 4 5Z"/></g><g fill="#151515" transform="translate(64 93) scale(0.23)"><path d="M0-28C-9-20-23-11-23 2c0 13 16 18 23 6 7 12 23 7 23-6C23-11 9-20 0-28Z"/><path d="M-4 5c-1 8-6 13-11 17h30C10 18 5 13 4 5Z"/></g><g fill="#151515" transform="translate(36 111) scale(0.23)"><path d="M0-28C-9-20-23-11-23 2c0 13 16 18 23 6 7 12 23 7 23-6C23-11 9-20 0-28Z"/><path d="M-4 5c-1 8-6 13-11 17h30C10 18 5 13 4 5Z"/></g><g fill="#151515" transform="translate(64 111) scale(0.23)"><path d="M0-28C-9-20-23-11-23 2c0 13 16 18 23 6 7 12 23 7 23-6C23-11 9-20 0-28Z"/><path d="M-4 5c-1 8-6 13-11 17h30C10 18 5 13 4 5Z"/></g></g></svg>
