<svg xmlns="http://www.w3.org/2000/svg" viewBox="0 0 100 140" role="img" aria-label="3 of Spades">
  <rect x="2" y="2" width="96" height="136" rx="9" fill="#f7f0e6" stroke="#ded5c8" stroke-width="1.5"/>
  <text font-family="Haskoy, -apple-system, Segoe UI, Arial, sans-serif" font-weight="500" x="15" y="23" fill="#111111" font-size="18" text-anchor="middle">3</text>
  <g fill="#111111" transform="translate(15 37) scale(0.19)"><path d="M0,-28 C-9,-20 -23,-11 -23,2 C-23,15 -7,20 0,8 C7,20 23,15 23,2 C23,-11 9,-20 0,-28Z"/><path d="M-4,5 C-5,13 -10,18 -15,22 H15 C10,18 5,13 4,5Z"/></g>
  <g><g fill="#111111" transform="translate(50 44) scale(0.28)"><path d="M0,-28 C-9,-20 -23,-11 -23,2 C-23,15 -7,20 0,8 C7,20 23,15 23,2 C23,-11 9,-20 0,-28Z"/><path d="M-4,5 C-5,13 -10,18 -15,22 H15 C10,18 5,13 4,5Z"/></g><g fill="#111111" transform="translate(50 72) scale(0.28)"><path d="M0,-28 C-9,-20 -23,-11 -23,2 C-23,15 -7,20 0,8 C7,20 23,15 23,2 C23,-11 9,-20 0,-28Z"/><path d="M-4,5 C-5,13 -10,18 -15,22 H15 C10,18 5,13 4,5Z"/></g><g fill="#111111" transform="translate(50 100) scale(0.28)"><path d="M0,-28 C-9,-20 -23,-11 -23,2 C-23,15 -7,20 0,8 C7,20 23,15 23,2 C23,-11 9,-20 0,-28Z"/><path d="M-4,5 C-5,13 -10,18 -15,22 H15 C10,18 5,13 4,5Z"/></g></g>
</svg>
