<svg xmlns="http://www.w3.org/2000/svg" viewBox="0 0 100 140" role="img" aria-label="4 of Clubs"><rect x="2" y="2" width="96" height="136" rx="10" fill="#fbf6ee" stroke="#ded4c5" stroke-width="1.4"/><g font-family="Haskoy,-apple-system,BlinkMacSystemFont,'Segoe UI',Arial,sans-serif"><text x="15" y="23" fill="#151515" font-size="17" font-weight="600" text-anchor="middle">4</text><g fill="#151515" transform="translate(15 38) scale(0.18)"><circle cx="0" cy="-10" r="10"/><circle cx="-10" cy="4" r="10"/><circle cx="10" cy="4" r="10"/><path d="M-4 8c-1 9-6 14-12 18h32c-6-4-11-9-12-18Z"/></g></g><g><g fill="#151515" transform="translate(36 48) scale(0.29)"><circle cx="0" cy="-10" r="10"/><circle cx="-10" cy="4" r="10"/><circle cx="10" cy="4" r="10"/><path d="M-4 8c-1 9-6 14-12 18h32c-6-4-11-9-12-18Z"/></g><g fill="#151515" transform="translate(64 48) scale(0.29)"><circle cx="0" cy="-10" r="10"/><circle cx="-10" cy="4" r="10"/><circle cx="10" cy="4" r="10"/><path d="M-4 8c-1 9-6 14-12 18h32c-6-4-11-9-12-18Z"/></g><g fill="#151515" transform="translate(36 94) scale(0.29)"><circle cx="0" cy="-10" r="10"/><circle cx="-10" cy="4" r="10"/><circle cx="10" cy="4" r="10"/><path d="M-4 8c-1 9-6 14-12 18h32c-6-4-11-9-12-18Z"/></g><g fill="#151515" transform="translate(64 94) scale(0.29)"><circle cx="0" cy="-10" r="10"/><circle cx="-10" cy="4" r="10"/><circle cx="10" cy="4" r="10"/><path d="M-4 8c-1 9-6 14-12 18h32c-6-4-11-9-12-18Z"/></g></g></svg>
