<svg xmlns="http://www.w3.org/2000/svg" viewBox="0 0 100 140" role="img" aria-label="6 of Hearts"><rect x="2" y="2" width="96" height="136" rx="10" fill="#fbf6ee" stroke="#ded4c5" stroke-width="1.4"/><g font-family="Haskoy,-apple-system,BlinkMacSystemFont,'Segoe UI',Arial,sans-serif"><text x="15" y="23" fill="#e85d63" font-size="17" font-weight="600" text-anchor="middle">6</text><path fill="#e85d63" d="M0-7C-7-18-23-12-23 3c0 14 15 23 23 31C8 26 23 17 23 3 23-12 7-18 0-7Z" transform="translate(15 38) scale(0.18) translate(0 -7)"/></g><g><path fill="#e85d63" d="M0-7C-7-18-23-12-23 3c0 14 15 23 23 31C8 26 23 17 23 3 23-12 7-18 0-7Z" transform="translate(36 43) scale(0.27) translate(0 -7)"/><path fill="#e85d63" d="M0-7C-7-18-23-12-23 3c0 14 15 23 23 31C8 26 23 17 23 3 23-12 7-18 0-7Z" transform="translate(64 43) scale(0.27) translate(0 -7)"/><path fill="#e85d63" d="M0-7C-7-18-23-12-23 3c0 14 15 23 23 31C8 26 23 17 23 3 23-12 7-18 0-7Z" transform="translate(36 72) scale(0.27) translate(0 -7)"/><path fill="#e85d63" d="M0-7C-7-18-23-12-23 3c0 14 15 23 23 31C8 26 23 17 23 3 23-12 7-18 0-7Z" transform="translate(64 72) scale(0.27) translate(0 -7)"/><path fill="#e85d63" d="M0-7C-7-18-23-12-23 3c0 14 15 23 23 31C8 26 23 17 23 3 23-12 7-18 0-7Z" transform="translate(36 101) scale(0.27) translate(0 -7)"/><path fill="#e85d63" d="M0-7C-7-18-23-12-23 3c0 14 15 23 23 31C8 26 23 17 23 3 23-12 7-18 0-7Z" transform="translate(64 101) scale(0.27) translate(0 -7)"/></g></svg>
