<svg xmlns="http://www.w3.org/2000/svg" viewBox="0 0 100 140" role="img" aria-label="9 of Diamonds">
  <rect x="2" y="2" width="96" height="136" rx="9" fill="#f7f0e6" stroke="#ded5c8" stroke-width="1.5"/>
  <text font-family="Haskoy, -apple-system, Segoe UI, Arial, sans-serif" font-weight="500" x="15" y="23" fill="#e85d63" font-size="18" text-anchor="middle">9</text>
  <polygon points="0,-22 15,0 0,22 -15,0" fill="#e85d63" transform="translate(15 37) scale(0.19)"/>
  <g><polygon points="0,-22 15,0 0,22 -15,0" fill="#e85d63" transform="translate(36 38) scale(0.28)"/><polygon points="0,-22 15,0 0,22 -15,0" fill="#e85d63" transform="translate(64 38) scale(0.28)"/><polygon points="0,-22 15,0 0,22 -15,0" fill="#e85d63" transform="translate(36 54) scale(0.28)"/><polygon points="0,-22 15,0 0,22 -15,0" fill="#e85d63" transform="translate(64 54) scale(0.28)"/><polygon points="0,-22 15,0 0,22 -15,0" fill="#e85d63" transform="translate(50 72) scale(0.28)"/><polygon points="0,-22 15,0 0,22 -15,0" fill="#e85d63" transform="translate(36 90) scale(0.28)"/><polygon points="0,-22 15,0 0,22 -15,0" fill="#e85d63" transform="translate(64 90) scale(0.28)"/><polygon points="0,-22 15,0 0,22 -15,0" fill="#e85d63" transform="translate(36 106) scale(0.28)"/><polygon points="0,-22 15,0 0,22 -15,0" fill="#e85d63" transform="translate(64 106) scale(0.28)"/></g>
</svg>
