<svg xmlns="http://www.w3.org/2000/svg" viewBox="0 0 100 140" role="img" aria-label="Queen of Clubs"><rect x="2" y="2" width="96" height="136" rx="10" fill="#fbf6ee" stroke="#ded4c5" stroke-width="1.4"/><g font-family="Haskoy,-apple-system,BlinkMacSystemFont,'Segoe UI',Arial,sans-serif"><text x="15" y="23" fill="#151515" font-size="17" font-weight="600" text-anchor="middle">Q</text><g fill="#151515" transform="translate(15 38) scale(0.18)"><circle cx="0" cy="-10" r="10"/><circle cx="-10" cy="4" r="10"/><circle cx="10" cy="4" r="10"/><path d="M-4 8c-1 9-6 14-12 18h32c-6-4-11-9-12-18Z"/></g></g><g><text x="50" y="65" fill="#151515" font-size="35" font-weight="500" text-anchor="middle" dominant-baseline="middle">Q</text><g fill="#151515" transform="translate(50 97) scale(0.4)"><circle cx="0" cy="-10" r="10"/><circle cx="-10" cy="4" r="10"/><circle cx="10" cy="4" r="10"/><path d="M-4 8c-1 9-6 14-12 18h32c-6-4-11-9-12-18Z"/></g></g></svg>
